# This file uses meters as units for non-parametric coordinates.

mtllib snow-plain.mtl
g default
v -100.000000 0.000000 100.000000
v -80.000000 0.000000 100.000000
v -60.000000 0.000000 100.000000
v -40.000000 0.000000 100.000000
v -8.679189 0.000000 100.000000
v 0.000000 0.000000 100.000000
v 20.000000 0.000000 100.000000
v 40.000000 0.000000 100.000000
v 60.000000 0.000000 100.000000
v 80.000000 0.000000 100.000000
v 100.000000 0.000000 100.000000
v -100.000000 0.000000 80.000000
v -76.226006 0.000000 80.000000
v -60.000000 1.604224 80.000000
v -40.000000 0.000000 80.000000
v -8.679189 0.000000 80.000000
v 0.000000 2.927837 80.000000
v 20.000000 0.000000 80.000000
v 40.000000 0.000000 80.000000
v 60.000000 0.000000 80.000000
v 80.000000 0.000000 80.000000
v 100.000000 0.000000 80.000000
v -100.000000 0.000000 60.000000
v -80.000000 3.528401 60.000000
v -60.000000 0.000000 60.000000
v -40.000000 0.000000 60.000000
v -8.679189 0.000000 60.000000
v 0.000000 2.927837 60.000000
v 20.000000 0.000000 60.000000
v 40.000000 0.000000 60.000000
v 60.000000 0.000000 60.000000
v 80.000000 0.000000 60.000000
v 100.000000 0.000000 60.000000
v -100.000000 0.000000 40.000000
v -80.000000 3.528401 40.000000
v -60.000000 0.000000 40.000000
v -40.000000 0.000000 40.000000
v -20.000000 0.000000 40.000000
v 2.486362 0.000000 40.000000
v 20.000000 1.703586 40.000000
v 40.000000 0.000000 40.000000
v 60.000000 0.000000 40.000000
v 80.000000 0.000000 40.000000
v 100.000000 0.000000 40.000000
v -100.000000 0.000000 20.000000
v -76.226006 0.000000 20.000000
v -60.000000 1.604224 20.000000
v -40.000000 0.000000 20.000000
v -20.000000 0.000000 20.000000
v 0.000000 0.000000 20.000000
v 20.000000 2.927837 20.000000
v 40.000000 1.703586 20.000000
v 60.000000 0.000000 20.000000
v 80.000000 0.000000 20.000000
v 100.000000 0.000000 20.000000
v -100.000000 0.000000 0.000000
v -80.000000 0.000000 0.000000
v -60.000000 3.528401 0.000000
v -40.000000 1.604224 0.000000
v -20.000000 0.000000 0.000000
v 0.000000 0.000000 0.000000
v 22.486362 0.000000 0.000000
v 40.000000 2.927837 0.000000
v 60.000000 0.000000 0.000000
v 80.000000 0.000000 0.000000
v 100.000000 0.000000 0.000000
v -100.000000 0.000000 -20.000000
v -80.000000 0.000000 -20.000000
v -56.226006 0.000000 -20.000000
v -40.000000 3.528401 -20.000000
v -20.000000 0.000000 -20.000000
v 0.000000 0.000000 -20.000000
v 20.000000 0.000000 -20.000000
v 42.486362 0.000000 -20.000000
v 60.000000 1.703586 -20.000000
v 80.000000 0.000000 -20.000000
v 100.000000 0.000000 -20.000000
v -100.000000 0.000000 -40.000000
v -80.000000 0.000000 -40.000000
v -60.000000 0.000000 -40.000000
v -36.226006 0.000000 -40.000000
v -20.000000 1.604224 -40.000000
v 0.000000 0.000000 -40.000000
v 20.000000 0.000000 -40.000000
v 42.486362 0.000000 -40.000000
v 60.000000 1.703586 -40.000000
v 80.000000 0.000000 -40.000000
v 100.000000 0.000000 -40.000000
v -100.000000 0.000000 -60.000000
v -80.000000 0.000000 -60.000000
v -60.000000 0.000000 -60.000000
v -36.226006 0.000000 -60.000000
v -20.000000 1.604224 -60.000000
v 0.000000 0.000000 -60.000000
v 20.000000 0.000000 -60.000000
v 42.486362 0.000000 -60.000000
v 60.000000 1.703586 -60.000000
v 80.000000 0.569855 -60.000000
v 100.000000 0.000000 -60.000000
v -100.000000 0.000000 -80.000000
v -80.000000 0.000000 -80.000000
v -60.000000 0.000000 -80.000000
v -40.000000 0.000000 -80.000000
v -20.000000 3.528401 -80.000000
v 0.000000 1.604224 -80.000000
v 20.000000 0.000000 -80.000000
v 40.000000 0.000000 -80.000000
v 60.000000 2.927837 -80.000000
v 80.000000 1.703586 -80.000000
v 100.000000 0.000000 -80.000000
v -100.000000 0.000000 -100.000000
v -80.000000 0.000000 -100.000000
v -60.000000 0.000000 -100.000000
v -40.000000 0.000000 -100.000000
v -16.226006 0.000000 -100.000000
v 0.000000 0.000000 -100.000000
v 20.000000 0.000000 -100.000000
v 40.000000 0.000000 -100.000000
v 62.486362 0.000000 -100.000000
v 80.000000 0.000000 -100.000000
v 100.000000 0.000000 -100.000000
v 10.000000 0.000000 100.000000
v 10.000000 1.703586 80.000000
v 10.000000 1.703586 60.000000
v 10.000000 2.927837 40.000000
v 12.486362 0.000000 20.000000
v 10.000000 0.000000 0.000000
v 10.000000 0.000000 -20.000000
v 10.000000 0.000000 -40.000000
v 10.000000 0.000000 -60.000000
v 10.000000 0.000000 -80.000000
v 10.000000 0.000000 -100.000000
v 50.000000 0.000000 100.000000
v 50.000000 0.000000 80.000000
v 50.000000 0.000000 60.000000
v 50.000000 0.000000 40.000000
v 50.000000 0.000000 20.000000
v 50.000000 1.703586 0.000000
v 50.000000 2.927837 -20.000000
v 50.000000 2.927837 -40.000000
v 50.000000 2.927837 -60.000000
v 52.486362 0.000000 -80.000000
v 50.000000 0.000000 -100.000000
v -24.339594 0.000000 100.000000
v -24.339594 0.000000 80.000000
v -24.339594 0.000000 60.000000
v -30.000000 0.000000 40.000000
v -30.000000 0.000000 20.000000
v -30.000000 0.000000 0.000000
v -30.000000 1.604224 -20.000000
v -30.000000 3.528401 -40.000000
v -30.000000 3.528401 -60.000000
v -26.226006 0.000000 -80.000000
v -30.000000 0.000000 -100.000000
v -66.226006 0.000000 100.000000
v -70.000000 3.528401 80.000000
v -70.000000 1.604224 60.000000
v -70.000000 1.604224 40.000000
v -70.000000 3.528401 20.000000
v -66.226006 0.000000 0.000000
v -70.000000 0.000000 -20.000000
v -70.000000 0.000000 -40.000000
v -70.000000 0.000000 -60.000000
v -70.000000 0.000000 -80.000000
v -70.000000 0.000000 -100.000000
v -90.000000 0.000000 100.000000
v -90.000000 0.000000 80.000000
v -86.226006 0.000000 60.000000
v -86.226006 0.000000 40.000000
v -90.000000 0.000000 20.000000
v -90.000000 0.000000 0.000000
v -90.000000 0.000000 -20.000000
v -90.000000 0.000000 -40.000000
v -90.000000 0.000000 -60.000000
v -90.000000 0.000000 -80.000000
v -90.000000 0.000000 -100.000000
vt 0.994953 0.002286
vt 0.994173 0.101709
vt 0.993047 0.202122
vt 0.993646 0.302110
vt 0.993639 0.458591
vt 0.994167 0.502047
vt 0.994795 0.601875
vt 0.995281 0.701434
vt 0.995429 0.800823
vt 0.995569 0.900077
vt 0.995774 0.999222
vt 0.895496 0.001019
vt 0.895207 0.118376
vt 0.893537 0.203661
vt 0.894521 0.303035
vt 0.894578 0.457964
vt 0.894448 0.503100
vt 0.895767 0.603087
vt 0.896136 0.702214
vt 0.896289 0.801332
vt 0.896402 0.900459
vt 0.896576 0.999562
vt 0.795577 0.001032
vt 0.794496 0.104817
vt 0.794666 0.205092
vt 0.795240 0.303741
vt 0.795324 0.458595
vt 0.796014 0.504007
vt 0.796777 0.603934
vt 0.796925 0.702739
vt 0.797034 0.801722
vt 0.797103 0.900774
vt 0.797202 0.999850
vt 0.695868 0.001058
vt 0.696259 0.104704
vt 0.696240 0.205075
vt 0.696218 0.303716
vt 0.696192 0.402521
vt 0.695951 0.513668
vt 0.697524 0.603451
vt 0.697706 0.702850
vt 0.697735 0.801878
vt 0.697730 0.900930
vt 0.697724 1.000000
vt 0.596322 0.000330
vt 0.595236 0.117983
vt 0.597447 0.203905
vt 0.597237 0.303280
vt 0.597133 0.402276
vt 0.597018 0.501286
vt 0.598438 0.602954
vt 0.598176 0.702107
vt 0.598442 0.801855
vt 0.598329 0.900920
vt 0.598207 0.999993
vt 0.496793 0.000000
vt 0.496327 0.099067
vt 0.498416 0.202616
vt 0.497985 0.302142
vt 0.498169 0.401967
vt 0.498127 0.501195
vt 0.498221 0.612932
vt 0.498777 0.701295
vt 0.499176 0.801655
vt 0.498930 0.900759
vt 0.498694 0.999852
vt 0.397395 0.000013
vt 0.397256 0.099202
vt 0.397513 0.217556
vt 0.398464 0.300505
vt 0.399305 0.401612
vt 0.399208 0.500898
vt 0.399097 0.600012
vt 0.398711 0.711055
vt 0.399573 0.800937
vt 0.399530 0.900519
vt 0.399199 0.999659
vt 0.298010 0.000024
vt 0.298058 0.099120
vt 0.298200 0.198141
vt 0.298027 0.315194
vt 0.300209 0.401157
vt 0.300258 0.500751
vt 0.300016 0.599838
vt 0.299978 0.711207
vt 0.300385 0.801014
vt 0.300151 0.900382
vt 0.299617 0.999446
vt 0.198571 0.000190
vt 0.198754 0.099262
vt 0.198916 0.198304
vt 0.199467 0.316267
vt 0.201638 0.401927
vt 0.201374 0.500929
vt 0.200885 0.599752
vt 0.200720 0.711094
vt 0.201424 0.800854
vt 0.200811 0.899903
vt 0.199959 0.998893
vt 0.099199 0.000549
vt 0.099494 0.099632
vt 0.099776 0.198702
vt 0.100176 0.297640
vt 0.103069 0.400679
vt 0.102114 0.499654
vt 0.101592 0.599193
vt 0.101357 0.698149
vt 0.102565 0.799604
vt 0.101398 0.898537
vt 0.100269 0.997910
vt 0.000000 0.001011
vt 0.000325 0.100148
vt 0.000589 0.199416
vt 0.001148 0.298883
vt 0.002958 0.417681
vt 0.002529 0.498940
vt 0.002310 0.598575
vt 0.002244 0.698036
vt 0.002620 0.810058
vt 0.001750 0.897384
vt 0.000917 0.996628
vt 0.994442 0.552017
vt 0.895186 0.552890
vt 0.796339 0.553794
vt 0.697298 0.553564
vt 0.597027 0.563093
vt 0.498138 0.550855
vt 0.399156 0.550479
vt 0.300145 0.550328
vt 0.201082 0.550305
vt 0.101771 0.549715
vt 0.002461 0.548796
vt 0.995381 0.751154
vt 0.896222 0.751774
vt 0.796981 0.752220
vt 0.697724 0.752358
vt 0.598482 0.752327
vt 0.498881 0.751338
vt 0.399472 0.750985
vt 0.300228 0.751104
vt 0.201382 0.751049
vt 0.101195 0.759820
vt 0.002248 0.747794
vt 0.993961 0.380340
vt 0.894632 0.380563
vt 0.795352 0.381080
vt 0.696207 0.353120
vt 0.597180 0.352776
vt 0.498212 0.352361
vt 0.398953 0.351246
vt 0.299634 0.350569
vt 0.200993 0.351700
vt 0.100450 0.365546
vt 0.001550 0.348723
vt 0.992776 0.170790
vt 0.892669 0.153506
vt 0.794436 0.155152
vt 0.696196 0.155044
vt 0.597220 0.153411
vt 0.496128 0.167285
vt 0.397270 0.148896
vt 0.298113 0.148649
vt 0.198836 0.148787
vt 0.099623 0.149175
vt 0.000469 0.149770
vt 0.994546 0.051889
vt 0.895281 0.050488
vt 0.795523 0.069292
vt 0.695434 0.069302
vt 0.595940 0.049836
vt 0.496556 0.049537
vt 0.397310 0.049581
vt 0.298022 0.049569
vt 0.198666 0.049729
vt 0.099358 0.050093
vt 0.000184 0.050569
vn 0.000000 1.000000 0.000000
vn 0.000000 1.000000 0.000000
vn 0.000000 1.000000 0.000000
vn 0.000000 1.000000 0.000000
vn -0.142717 0.987188 0.071358
vn -0.040456 0.995276 0.088254
vn -0.077798 0.993532 0.082716
vn 0.050035 0.996550 0.066213
vn 0.019637 0.999786 -0.006510
vn 0.087040 0.996204 -0.001418
vn 0.000000 1.000000 0.000000
vn 0.000000 1.000000 0.000000
vn 0.000000 1.000000 0.000000
vn -0.019937 0.999526 0.023474
vn -0.077229 0.996509 0.031713
vn -0.098566 0.995131 0.000000
vn 0.019264 0.992301 0.122343
vn 0.138868 0.989681 0.035314
vn 0.000000 1.000000 0.000000
vn 0.000000 1.000000 0.000000
vn 0.000000 1.000000 0.000000
vn 0.041905 0.999107 0.005486
vn 0.000000 1.000000 0.000000
vn 0.000000 1.000000 0.000000
vn 0.000000 1.000000 0.000000
vn 0.000000 1.000000 0.000000
vn 0.000000 1.000000 0.000000
vn 0.000000 1.000000 0.000000
vn 0.000000 1.000000 0.000000
vn 0.000000 1.000000 0.000000
vn -0.134621 0.990729 0.018279
vn 0.000000 1.000000 0.000000
vn -0.131102 0.990853 0.031993
vn 0.011710 0.999863 -0.011710
vn 0.058148 0.998070 -0.021791
vn 0.000000 1.000000 0.000000
vn -0.112977 0.993172 -0.029072
vn -0.090694 0.995793 -0.013048
vn 0.142552 0.989520 0.023008
vn 0.000000 1.000000 0.000000
vn 0.065999 0.997642 0.018851
vn 0.000000 1.000000 0.000000
vn 0.000000 1.000000 0.000000
vn 0.000000 1.000000 0.000000
vn 0.000000 1.000000 0.000000
vn -0.134621 0.990729 -0.018279
vn 0.000000 1.000000 0.000000
vn 0.175138 0.984096 -0.029681
vn 0.175138 0.984096 0.029681
vn -0.131102 0.990853 -0.031993
vn 0.012764 0.999837 0.012764
vn 0.058148 0.998070 0.021791
vn 0.000000 1.000000 0.000000
vn -0.079295 0.996039 -0.040243
vn 0.000000 1.000000 0.000000
vn -0.096702 0.994138 -0.048351
vn 0.043667 0.998244 0.040027
vn 0.095299 0.992707 0.073832
vn 0.000000 1.000000 0.000000
vn 0.000000 1.000000 0.000000
vn 0.000000 1.000000 0.000000
vn 0.000000 1.000000 0.000000
vn 0.000000 1.000000 0.000000
vn 0.000000 1.000000 0.000000
vn -0.098269 0.993946 -0.049134
vn -0.142717 0.987188 -0.071358
vn 0.048007 0.998046 0.039995
vn 0.088550 0.993933 0.065236
vn 0.020048 0.999749 0.010024
vn 0.000000 1.000000 0.000000
vn 0.000000 1.000000 0.000000
vn -0.117948 0.991267 -0.058974
vn 0.098454 0.992571 0.071482
vn -0.078388 0.996348 -0.033846
vn 0.067947 0.997110 0.033973
vn 0.000000 1.000000 0.000000
vn 0.000000 1.000000 0.000000
vn 0.000000 1.000000 0.000000
vn 0.000000 1.000000 0.000000
vn 0.000000 1.000000 0.000000
vn -0.142717 0.987188 -0.071358
vn 0.000000 1.000000 0.000000
vn 0.099241 0.992174 0.075773
vn -0.083997 0.996091 -0.027332
vn 0.068445 0.997068 0.034223
vn 0.000000 1.000000 0.000000
vn 0.013367 0.999888 0.006684
vn 0.000000 1.000000 0.000000
vn -0.045799 0.997255 -0.058178
vn -0.073228 0.994962 -0.068473
vn 0.144470 0.986869 0.072235
vn 0.010646 0.999887 0.010646
vn 0.045951 0.998448 0.031484
vn 0.000000 1.000000 0.000000
vn 0.000000 1.000000 0.000000
vn 0.000000 1.000000 0.000000
vn 0.000000 1.000000 0.000000
vn 0.000000 1.000000 0.000000
vn -0.039547 0.997240 -0.062832
vn -0.087305 0.992774 -0.082323
vn 0.139631 0.987739 0.069815
vn 0.013366 0.999821 0.013366
vn 0.043606 0.998625 0.029090
vn 0.000000 1.000000 0.000000
vn -0.116452 0.992685 -0.031868
vn 0.000000 1.000000 0.000000
vn -0.073771 0.997262 -0.005078
vn 0.031924 0.999434 0.010641
vn 0.080961 0.996483 0.021619
vn 0.000000 1.000000 0.000000
vn 0.000000 1.000000 0.000000
vn 0.000000 1.000000 0.000000
vn 0.000000 1.000000 0.000000
vn 0.000000 1.000000 0.000000
vn -0.141660 0.989193 -0.037801
vn 0.000000 1.000000 0.000000
vn -0.067026 0.997750 -0.001493
vn 0.032064 0.999357 0.016032
vn 0.098414 0.994755 0.027888
vn 0.000000 1.000000 0.000000
vn -0.097133 0.995272 0.000000
vn 0.000000 1.000000 0.000000
vn -0.096815 0.995302 0.000000
vn 0.042539 0.999070 0.007114
vn 0.092447 0.995706 0.004728
vn 0.007123 0.999949 0.007123
vn 0.000000 1.000000 0.000000
vn 0.000000 1.000000 0.000000
vn 0.000000 1.000000 0.000000
vn 0.000000 1.000000 0.000000
vn -0.088586 0.995996 -0.012028
vn 0.000000 1.000000 0.000000
vn -0.131102 0.990853 -0.031993
vn 0.060003 0.997749 0.029961
vn 0.129234 0.990864 0.038569
vn 0.020048 0.999749 0.010024
vn -0.072856 0.997295 -0.009705
vn 0.000000 1.000000 0.000000
vn -0.120428 0.992341 -0.027495
vn 0.048614 0.998522 0.024291
vn 0.085063 0.996033 0.026127
vn 0.035511 0.999143 0.021277
vn 0.000000 1.000000 0.000000
vn 0.000000 1.000000 0.000000
vn 0.000000 1.000000 0.000000
vn 0.000000 1.000000 0.000000
vn 0.000000 1.000000 0.000000
vn 0.000000 1.000000 0.000000
vn -0.142717 0.987188 -0.071358
vn 0.098007 0.995183 0.002291
vn -0.057229 0.996762 -0.056484
vn 0.039110 0.999229 0.003332
vn 0.000000 1.000000 0.000000
vn 0.000000 1.000000 0.000000
vn -0.117948 0.991267 -0.058974
vn 0.053111 0.998547 -0.009111
vn -0.055386 0.996788 -0.057839
vn 0.049650 0.998741 -0.007114
vn 0.000000 1.000000 0.000000
vn 0.000000 1.000000 0.000000
vn 0.000000 1.000000 0.000000
vn 0.000000 1.000000 0.000000
vn 0.000000 1.000000 0.000000
vn 0.000000 1.000000 0.000000
vn 0.000000 1.000000 0.000000
vn 0.050753 0.994857 -0.087661
vn -0.024864 0.992294 -0.121388
vn 0.000000 1.000000 0.000000
vn 0.000000 1.000000 0.000000
vn 0.000000 1.000000 0.000000
vn 0.000000 1.000000 0.000000
vn 0.039242 0.997101 -0.065185
vn -0.023177 0.994211 -0.104917
vn 0.042513 0.998191 -0.042513
vn 0.025426 0.998156 0.055127
vn 0.000000 1.000000 0.000000
s 1
g snow_plain
usemtl blinn1SG
f 1/1/1 166/166/2 167/167/3 12/12/4
f 13/13/5 155/155/6 156/156/7
f 3/3/8 15/15/9 14/14/10
f 4/4/11 144/144/12 145/145/13 15/15/9
f 5/5/14 17/17/15 16/16/16
f 6/6/17 123/123/18 17/17/15
f 7/7/19 8/8/20 19/19/21 18/18/22
f 8/8/20 133/133/23 134/134/24 19/19/21
f 9/9/25 10/10/26 21/21/27 20/20/28
f 10/10/26 11/11/29 22/22/30 21/21/27
f 12/12/4 167/167/3 168/168/31 23/23/32
f 13/13/5 156/156/7 24/24/33
f 14/14/10 15/15/9 26/26/34 25/25/35
f 15/15/9 145/145/13 146/146/36 26/26/34
f 16/16/16 17/17/15 28/28/37 27/27/38
f 17/17/15 123/123/18 124/124/39 28/28/37
f 18/18/22 19/19/21 30/30/40 29/29/41
f 19/19/21 134/134/24 135/135/42 30/30/40
f 20/20/28 21/21/27 32/32/43 31/31/44
f 21/21/27 22/22/30 33/33/45 32/32/43
f 23/23/32 168/168/31 169/169/46 34/34/47
f 24/24/33 157/157/48 158/158/49 35/35/50
f 25/25/35 26/26/34 37/37/51 36/36/52
f 26/26/34 146/146/36 147/147/53 37/37/51
f 27/27/38 39/39/54 38/38/55
f 28/28/37 125/125/56 39/39/54
f 29/29/41 41/41/57 40/40/58
f 30/30/40 135/135/42 136/136/59 41/41/57
f 31/31/44 32/32/43 43/43/60 42/42/61
f 32/32/43 33/33/45 44/44/62 43/43/60
f 34/34/47 169/169/46 170/170/63 45/45/64
f 35/35/50 159/159/65 46/46/66
f 36/36/52 37/37/51 48/48/67 47/47/68
f 37/37/51 147/147/53 148/148/69 48/48/67
f 38/38/55 39/39/54 50/50/70 49/49/71
f 39/39/54 126/126/72 50/50/70
f 40/40/58 52/52/73 51/51/74
f 41/41/57 137/137/75 52/52/73
f 42/42/61 43/43/60 54/54/76 53/53/77
f 43/43/60 44/44/62 55/55/78 54/54/76
f 45/45/64 170/170/63 171/171/79 56/56/80
f 46/46/66 160/160/81 57/57/82
f 47/47/68 59/59/83 58/58/84
f 48/48/67 148/148/69 149/149/85 59/59/83
f 49/49/71 50/50/70 61/61/86 60/60/87
f 50/50/70 126/126/72 127/127/88 61/61/86
f 51/51/74 63/63/89 62/62/90
f 52/52/73 138/138/91 63/63/89
f 53/53/77 54/54/76 65/65/92 64/64/93
f 54/54/76 55/55/78 66/66/94 65/65/92
f 56/56/80 171/171/79 172/172/95 67/67/96
f 57/57/82 160/160/81 161/161/97 68/68/98
f 58/58/84 70/70/99 69/69/100
f 59/59/83 150/150/101 70/70/99
f 60/60/87 61/61/86 72/72/102 71/71/103
f 61/61/86 127/127/88 128/128/104 72/72/102
f 62/62/90 74/74/105 73/73/106
f 63/63/89 139/139/107 74/74/105
f 64/64/93 65/65/92 76/76/108 75/75/109
f 65/65/92 66/66/94 77/77/110 76/76/108
f 67/67/96 172/172/95 173/173/111 78/78/112
f 68/68/98 161/161/97 162/162/113 79/79/114
f 69/69/100 81/81/115 80/80/116
f 70/70/99 151/151/117 81/81/115
f 71/71/103 72/72/102 83/83/118 82/82/119
f 72/72/102 128/128/104 129/129/120 83/83/118
f 73/73/106 74/74/105 85/85/121 84/84/122
f 74/74/105 139/139/107 140/140/123 85/85/121
f 75/75/109 76/76/108 87/87/124 86/86/125
f 76/76/108 77/77/110 88/88/126 87/87/124
f 78/78/112 173/173/111 174/174/127 89/89/128
f 79/79/114 162/162/113 163/163/129 90/90/130
f 80/80/116 81/81/115 92/92/131 91/91/132
f 81/81/115 151/151/117 152/152/133 92/92/131
f 82/82/119 94/94/134 93/93/135
f 83/83/118 129/129/120 130/130/136 94/94/134
f 84/84/122 85/85/121 96/96/137 95/95/138
f 85/85/121 140/140/123 141/141/139 96/96/137
f 86/86/125 87/87/124 98/98/140 97/97/141
f 87/87/124 88/88/126 99/99/142 98/98/140
f 89/89/128 174/174/127 175/175/143 100/100/144
f 90/90/130 163/163/129 164/164/145 101/101/146
f 91/91/132 92/92/131 103/103/147 102/102/148
f 92/92/131 153/153/149 103/103/147
f 93/93/135 105/105/150 104/104/151
f 94/94/134 130/130/136 131/131/152 105/105/150
f 95/95/138 96/96/137 107/107/153 106/106/154
f 96/96/137 142/142/155 107/107/153
f 97/97/141 109/109/156 108/108/157
f 98/98/140 99/99/142 110/110/158 109/109/156
f 100/100/144 175/175/143 176/176/159 111/111/160
f 101/101/146 164/164/145 165/165/161 112/112/162
f 102/102/148 103/103/147 114/114/163 113/113/164
f 103/103/147 153/153/149 154/154/165 114/114/163
f 104/104/151 116/116/166 115/115/167
f 116/116/166 131/131/152 132/132/168
f 106/106/154 107/107/153 118/118/169 117/117/170
f 107/107/153 142/142/155 143/143/171 118/118/169
f 108/108/157 120/120/172 119/119/173
f 109/109/156 110/110/158 121/121/174 120/120/172
f 18/18/22 122/122/175 7/7/19
f 124/124/39 123/123/18 18/18/22 29/29/41
f 40/40/58 124/124/39 29/29/41
f 51/51/74 125/125/56 40/40/58
f 127/127/88 126/126/72 62/62/90
f 128/128/104 127/127/88 62/62/90 73/73/106
f 129/129/120 128/128/104 73/73/106 84/84/122
f 130/130/136 129/129/120 84/84/122 95/95/138
f 131/131/152 130/130/136 95/95/138 106/106/154
f 132/132/168 131/131/152 106/106/154 117/117/170
f 134/134/24 133/133/23 9/9/25 20/20/28
f 135/135/42 134/134/24 20/20/28 31/31/44
f 136/136/59 135/135/42 31/31/44 42/42/61
f 137/137/75 136/136/59 42/42/61 53/53/77
f 64/64/93 137/137/75 53/53/77
f 139/139/107 138/138/91 75/75/109
f 140/140/123 139/139/107 75/75/109 86/86/125
f 141/141/139 140/140/123 86/86/125 97/97/141
f 108/108/157 141/141/139 97/97/141
f 143/143/171 142/142/155 119/119/173
f 142/142/155 141/141/139 108/108/157
f 108/108/157 109/109/156 120/120/172
f 63/63/89 138/138/91 139/139/107
f 51/51/74 52/52/73 63/63/89
f 126/126/72 125/125/56 51/51/74
f 28/28/37 124/124/39 125/125/56
f 5/5/14 6/6/17 17/17/15
f 6/6/17 122/122/175 123/123/18
f 40/40/58 41/41/57 52/52/73
f 125/125/56 124/124/39 40/40/58
f 52/52/73 137/137/75 138/138/91
f 75/75/109 138/138/91 64/64/93
f 97/97/141 98/98/140 109/109/156
f 96/96/137 141/141/139 142/142/155
f 119/119/173 142/142/155 108/108/157
f 39/39/54 125/125/56 126/126/72
f 62/62/90 126/126/72 51/51/74
f 62/62/90 63/63/89 74/74/105
f 27/27/38 28/28/37 39/39/54
f 123/123/18 122/122/175 18/18/22
f 29/29/41 30/30/40 41/41/57
f 41/41/57 136/136/59 137/137/75
f 138/138/91 137/137/75 64/64/93
f 145/145/13 144/144/12 5/5/14 16/16/16
f 146/146/36 145/145/13 16/16/16 27/27/38
f 147/147/53 146/146/36 27/27/38 38/38/55
f 148/148/69 147/147/53 38/38/55 49/49/71
f 149/149/85 148/148/69 49/49/71 60/60/87
f 150/150/101 149/149/85 60/60/87 71/71/103
f 151/151/117 150/150/101 82/82/119
f 152/152/133 151/151/117 82/82/119 93/93/135
f 153/153/149 152/152/133 104/104/151
f 154/154/165 153/153/149 115/115/167
f 156/156/7 155/155/6 3/3/8
f 157/157/48 156/156/7 14/14/10
f 158/158/49 157/157/48 25/25/35 36/36/52
f 159/159/65 158/158/49 47/47/68
f 160/160/81 159/159/65 58/58/84
f 161/161/97 160/160/81 69/69/100
f 162/162/113 161/161/97 69/69/100 80/80/116
f 163/163/129 162/162/113 80/80/116 91/91/132
f 164/164/145 163/163/129 91/91/132 102/102/148
f 165/165/161 164/164/145 102/102/148 113/113/164
f 156/156/7 3/3/8 14/14/10
f 24/24/33 156/156/7 157/157/48
f 35/35/50 158/158/49 159/159/65
f 58/58/84 159/159/65 47/47/68
f 58/58/84 59/59/83 70/70/99
f 70/70/99 150/150/101 151/151/117
f 104/104/151 152/152/133 93/93/135
f 104/104/151 105/105/150 116/116/166
f 157/157/48 14/14/10 25/25/35
f 47/47/68 158/158/49 36/36/52
f 47/47/68 48/48/67 59/59/83
f 59/59/83 149/149/85 150/150/101
f 82/82/119 150/150/101 71/71/103
f 93/93/135 94/94/134 105/105/150
f 92/92/131 152/152/133 153/153/149
f 115/115/167 153/153/149 104/104/151
f 46/46/66 159/159/65 160/160/81
f 69/69/100 160/160/81 58/58/84
f 69/69/100 70/70/99 81/81/115
f 2/2/176 155/155/6 13/13/5
f 167/167/3 166/166/2 2/2/176 13/13/5
f 168/168/31 167/167/3 13/13/5
f 169/169/46 168/168/31 24/24/33 35/35/50
f 46/46/66 169/169/46 35/35/50
f 171/171/79 170/170/63 46/46/66 57/57/82
f 172/172/95 171/171/79 57/57/82 68/68/98
f 173/173/111 172/172/95 68/68/98 79/79/114
f 174/174/127 173/173/111 79/79/114 90/90/130
f 175/175/143 174/174/127 90/90/130 101/101/146
f 176/176/159 175/175/143 101/101/146 112/112/162
f 170/170/63 169/169/46 46/46/66
f 168/168/31 13/13/5 24/24/33
f 3/3/8 4/4/11 15/15/9
f 105/105/150 131/131/152 116/116/166
f 82/82/119 83/83/118 94/94/134
